<?xml version="1.0" encoding="UTF-8"?>
<!DOCTYPE svg PUBLIC "-//W3C//DTD SVG 1.1//EN" "http://www.w3.org/Graphics/SVG/1.1/DTD/svg11.dtd">
<svg xmlns="http://www.w3.org/2000/svg" version="1.1" width="800px" height="800px" style="shape-rendering:geometricPrecision; text-rendering:geometricPrecision; image-rendering:optimizeQuality; fill-rule:evenodd; clip-rule:evenodd" xmlns:xlink="http://www.w3.org/1999/xlink">
<g><path style="opacity:0.991" fill="#fefffe" d="M 337.5,187.5 C 389.501,187.333 441.501,187.5 493.5,188C 539.637,194.8 567.47,220.967 577,266.5C 581.264,297.063 571.764,322.23 548.5,342C 545.011,344.826 541.178,346.993 537,348.5C 522.643,342.27 507.81,337.437 492.5,334C 484.265,331.956 475.932,331.29 467.5,332C 465.006,334.244 465.006,336.577 467.5,339C 541.942,359.447 578.109,408.281 576,485.5C 568.538,536.293 541.371,572.126 494.5,593C 462.967,604.527 430.467,609.027 397,606.5C 360.244,606.913 322.744,606.413 284.5,605C 249.013,596.186 223.847,575.019 209,541.5C 195.434,502.469 204.267,468.969 235.5,441C 237.365,439.699 239.365,439.365 241.5,440C 267.218,455.013 294.885,461.68 324.5,460C 325.833,458 325.833,456 324.5,454C 281.4,447.723 247.566,426.89 223,391.5C 201.917,355.817 197.583,318.15 210,278.5C 228.712,230.125 263.545,200.958 314.5,191C 322.322,189.901 329.989,188.734 337.5,187.5 Z"/></g>
</svg>
